<mxfile host="65bd71144e">
    <diagram id="JzJcmNxt4EW3JwsUu-of" name="Page-1">
        <mxGraphModel dx="579" dy="784" grid="1" gridSize="10" guides="1" tooltips="1" connect="1" arrows="1" fold="1" page="1" pageScale="1" pageWidth="1100" pageHeight="850" math="0" shadow="0">
            <root>
                <mxCell id="0"/>
                <mxCell id="1" parent="0"/>
                <mxCell id="2" value="" style="html=1;" parent="1" vertex="1">
                    <mxGeometry x="350" y="120" width="400" height="560" as="geometry"/>
                </mxCell>
                <mxCell id="3" value="Customer" style="shape=umlActor;verticalLabelPosition=bottom;verticalAlign=top;html=1;" parent="1" vertex="1">
                    <mxGeometry x="250" y="340" width="30" height="60" as="geometry"/>
                </mxCell>
                <mxCell id="4" value="E-commerce Website" style="text;html=1;strokeColor=none;fillColor=none;align=center;verticalAlign=middle;whiteSpace=wrap;rounded=0;" parent="1" vertex="1">
                    <mxGeometry x="470" y="130" width="160" height="30" as="geometry"/>
                </mxCell>
                <mxCell id="6" value="Explore available products" style="ellipse;whiteSpace=wrap;html=1;" parent="1" vertex="1">
                    <mxGeometry x="400" y="195" width="140" height="70" as="geometry"/>
                </mxCell>
                <mxCell id="7" value="Create user accounts" style="ellipse;whiteSpace=wrap;html=1;" parent="1" vertex="1">
                    <mxGeometry x="560" y="250" width="140" height="70" as="geometry"/>
                </mxCell>
                <mxCell id="8" value="Choosing shipping method" style="ellipse;whiteSpace=wrap;html=1;" parent="1" vertex="1">
                    <mxGeometry x="560" y="450" width="140" height="70" as="geometry"/>
                </mxCell>
                <mxCell id="9" value="Order Processing functionalities" style="ellipse;whiteSpace=wrap;html=1;" parent="1" vertex="1">
                    <mxGeometry x="400" y="500" width="140" height="70" as="geometry"/>
                </mxCell>
                <mxCell id="10" value="" style="endArrow=classic;html=1;entryX=0;entryY=1;entryDx=0;entryDy=0;" parent="1" target="6" edge="1">
                    <mxGeometry width="50" height="50" relative="1" as="geometry">
                        <mxPoint x="290" y="350" as="sourcePoint"/>
                        <mxPoint x="540" y="330" as="targetPoint"/>
                    </mxGeometry>
                </mxCell>
                <mxCell id="11" value="" style="endArrow=classic;html=1;entryX=0;entryY=1;entryDx=0;entryDy=0;" parent="1" target="7" edge="1">
                    <mxGeometry width="50" height="50" relative="1" as="geometry">
                        <mxPoint x="300" y="360" as="sourcePoint"/>
                        <mxPoint x="540" y="330" as="targetPoint"/>
                    </mxGeometry>
                </mxCell>
                <mxCell id="12" value="" style="endArrow=classic;html=1;entryX=0;entryY=0;entryDx=0;entryDy=0;" parent="1" target="8" edge="1">
                    <mxGeometry width="50" height="50" relative="1" as="geometry">
                        <mxPoint x="300" y="380" as="sourcePoint"/>
                        <mxPoint x="540" y="330" as="targetPoint"/>
                    </mxGeometry>
                </mxCell>
                <mxCell id="13" value="" style="endArrow=classic;html=1;entryX=0;entryY=0;entryDx=0;entryDy=0;" parent="1" target="9" edge="1">
                    <mxGeometry width="50" height="50" relative="1" as="geometry">
                        <mxPoint x="290" y="390" as="sourcePoint"/>
                        <mxPoint x="540" y="330" as="targetPoint"/>
                    </mxGeometry>
                </mxCell>
                <mxCell id="14" value="Checkout" style="ellipse;whiteSpace=wrap;html=1;" vertex="1" parent="1">
                    <mxGeometry x="600" y="350" width="140" height="70" as="geometry"/>
                </mxCell>
                <mxCell id="15" value="" style="endArrow=classic;html=1;" edge="1" parent="1" target="14">
                    <mxGeometry width="50" height="50" relative="1" as="geometry">
                        <mxPoint x="310" y="370" as="sourcePoint"/>
                        <mxPoint x="590.5025253169417" y="319.74873734152925" as="targetPoint"/>
                    </mxGeometry>
                </mxCell>
            </root>
        </mxGraphModel>
    </diagram>
</mxfile>